<?xml version="1.0" encoding="UTF-8"?>
<svg id="Layer_1" xmlns="http://www.w3.org/2000/svg" version="1.1" xmlns:xlink="http://www.w3.org/1999/xlink" viewBox="0 0 340.4 121.8">
  <!-- Generator: Adobe Illustrator 30.3.0, SVG Export Plug-In . SVG Version: 2.1.3 Build 182)  -->
  <defs>
    <style>
      .st0 {
        fill: #fff;
      }

      .st1 {
        fill: url(#linear-gradient1);
      }

      .st2 {
        clip-path: url(#clippath-1);
      }

      .st3 {
        clip-rule: evenodd;
        fill: none;
      }

      .st4 {
        fill: #bf0811;
      }

      .st5 {
        fill: #fcf0f0;
      }

      .st5, .st6 {
        fill-rule: evenodd;
      }

      .st6 {
        fill: #ef7e3b;
      }

      .st7 {
        fill: url(#linear-gradient);
      }

      .st8 {
        clip-path: url(#clippath);
      }
    </style>
    <clipPath id="clippath">
      <path class="st3" d="M64,22.6c22.4,0,40.5,18.1,40.5,40.5s-18.1,40.5-40.5,40.5-40.5-18.1-40.5-40.5S41.6,22.6,64,22.6"/>
    </clipPath>
    <linearGradient id="linear-gradient" x1="23.5" y1="63.1" x2="104.4" y2="63.1" gradientUnits="userSpaceOnUse">
      <stop offset="0" stop-color="#bf0811"/>
      <stop offset="1" stop-color="#ffd771"/>
    </linearGradient>
    <clipPath id="clippath-1">
      <path class="st3" d="M71.4,57.9c0,.9.2,1.5.4,2.4,0,.5.2.4.3.7.2.6.2.7.5,1.3.3.7.7.9.5,1.7-.7.3-2,.4-2.6,0-.6-.4-.9-1-1.1-1.6l-.5-1.7c-.3-1-.3-1.5-.8-2.4-.5-1-2-.7-2.4,0,0,.1,0,0,0,.2-.3.6-.4,1.3-.5,1.9-.1.7-.1,1.5-.1,2.3s.2,1.5.2,2c0,.9-.9.1-1.3-.1-.8-.5-1.6-.9-2.6-1.1-.8-.2-2.7-.2-3.5,0-.4.1-.2,0-.5.2-.2.1-.3,0-.5.2-.5.3-1,.8-1.4,1.3,0,0-.1.2-.2.2-.1.2-.2.3-.3.4-.3.5-.6,1-.8,1.5,0,.3-.1.3-.2.5-.2.5-.6,1.8-.6,2.4,0,1.7-.3,4.1.9,5.5.4.5,1.1.8,1.8.5,1.5-.6,1.7-3.2,2-3.8.5-1.1.8-.4.6.6-.2,1.3.3,3.6,1,4.8.1.2.2.3.3.6l2.1,2c1.4.8,2.7,1.1,4.5,1.1,2.9,0,6.6-1.7,8.7-3.7,1.2-1.1,2.2-2.2,3-3.6l.5-1c.5-1,1-2,1.2-3.1.8-3.2,2.5-2.5,4.6-3.5l1.3-.8c.6-.3,1.2-.8,1.6-1.3l1.8-2.6c.9-1.8,1-2.9,1-4.9s-.1-.5-.2-.8c-.1-.6-.2-1-.4-1.6l-.4-.8c-.3-.6-.7-1.2-1.1-1.7l-1-1c-.6-.6-1-.9-1.8-1.3-2.2-1.1-2-1.1-4.8-1.1s-.3,0-.5,0c-.1,0-.2,0-.5,0l-1.8.4c-.3.2-.4.3-.8.3l-3.7,2.8c-.9.9-1.6,2.4-1.8,3.7-.1.5-.3,1.2-.3,1.9M74.2,41.4c0-1.1-.5-3.3-1-4.4,0-.2,0-.2-.1-.3l-.9-1.7s0,0,0,0l-.9-1.2c-.3-.4-.6-.6-.9-.9-.6-.6-1.3-1.1-2-1.5l-2.6-1.4c-.9-.4-1.7-.5-2.7-.6-1.1-.2-2.1,0-3.3,0-.3,0-.5.1-.7.2-.2,0-.5.1-.7.1-.2,0-.2,0-.4,0-.3,0-.2,0-.3.1-.7.3-1.3.5-1.9.9-1,.6-2,1.3-2.8,2.1l-1.8,2.3c-.1.2-.2.3-.4.6-.2.4-.4.8-.9.9-.4.1-1.5-.3-2.3-.3-.7,0-1.2.2-1.7.6,0,0,0,0-.1.1,0,0,0,0,0,0l-.8.7c-.6.6-1.5,2.3-1.5,3.2,0,2.1-.2,3.3,1,5,.2.3.3.5.6.7l.7.6c.2.1.2.2.4.3,2.3,1.1,2.9-.1,4.1.4,0,1.9-.4,2.3-.5,3.5,0,.6-.1.3-.2.8,0,.2,0,.3,0,.5-.1.7-.6,1.4-1,2.1-.5,1-1.2,1.9-1.9,2.7l-.2.2c-.3.4-.7.8-1,1.2-.5.6-1.5,1.7-1.9,2.4,0,0,0,0,0,0,0,0,0,0,0,0l-.4.5c-1.1,1.5-1.9,3.3-2.5,5.1,0,.3-.2.6-.2.9,0,.2-.1.2-.2.4,0,.2,0,.2,0,.4,0,.3-.2.6-.2.9,0,.2,0,.3,0,.5-.4,1.7-.3,2.8-.3,4.5s.3,1.9.4,2.9c0,.2,0,.4,0,.6l.3.9c0,.5,0,.1.2.5,0,.2,0,.3.1.5.3,1.2.8,2.6,1.4,3.6l.9,1.4c.7,1.1,1.5,2.3,2.5,3.2l1.1,1c.8.8,2.5,2.1,3.5,2.7l1.6.9c.9.5,1.8.9,2.7,1.1l2,.5c1,.2,2,.5,3.2.5h4c.9,0,1.7-.3,2.6-.5.2,0,.3,0,.5,0,.7,0,1.2-.4,1.8-.5,1.6-.4,3-1.2,4.4-2.1l3.4-2.6c.1-.1,0,0,.1-.1,0,0,0,0,.2-.2,0,0,0,0,0,0l2.4-3c.2-.2.3-.4.5-.7.2-.3.3-.5.5-.7,0-.1.1-.2.2-.3.5-.9.9-1.9,1.3-2.8l.5-1.3c.2-.9.6-1.2.6-3.4s0-.2,0-.6c-.5,0-.9-.2-1.2.1-.2.2-.2.3-.3.5-.4.7-1,1.3-1.5,2-.2.2,0,0-.2.2l-1.1,1.2c-.7.8-2.5,2.1-3.4,2.6-.8.4-1.5.9-2.3,1.2-1.5.6-1.3.4-2.4.7-2.1.7-6.3.7-8.5,0l-1.9-.6c-1.1-.5-2.2-1.1-3.2-1.9l-1.9-1.8c-.2-.2-.3-.3-.4-.5-.6-.6-1.1-1.7-1.5-2.5-.9-1.8-.6-1.2-1-2.8-.1-.4-.1-1-.2-1.5,0-.5-.1-1.1-.1-1.6,0-1.1.2-2.1.3-3,.1-1.8.9-3.4,1.6-5,.2-.5.4-.6.6-1.1.3-.8,1-1.5,1.6-2.2l1.7-1.6c0,0,.1-.1.2-.2.7-.7,1.4-1.3,2.3-1.9,1-.7,2.1-1.3,3.2-1.8.2,0,.3-.2.6-.3l.6-.2c.9-.4,1.9-.6,2.8-1l1.6-.9c.8-.4,1.5-1,2.1-1.6.7-.7,1.7-1.9,2.2-2.7.1-.2.2-.3.3-.5.3-.4.7-1.2.8-1.6.3-1.5.7-2.8.7-4.3Z"/>
    </clipPath>
    <linearGradient id="linear-gradient1" x1="64.8" y1="88.6" x2="64.8" y2="29.1" gradientUnits="userSpaceOnUse">
      <stop offset="0" stop-color="#f37f0b"/>
      <stop offset="1" stop-color="#ffd774"/>
    </linearGradient>
  </defs>
  <path class="st4" d="M292.9,53.6l-3.1-7.9-3.1,7.9h6.1ZM295.8,61.2h-12l-2.1,5.5h-10.8l13.8-31.5h10.4l13.8,31.5h-11l-2.1-5.5ZM254.4,56.3l-2.4,2.7v7.8h-10.4v-31.5h10.4v11.4l10.3-11.4h11.6l-12.6,13.8,13.2,17.6h-12.3l-7.9-10.4ZM225.8,35.2h10.6v31.5h-10.6v-31.5ZM224.8,35.2l-13.3,31.5h-10.4l-13.3-31.5h11.4l7.5,18.4,7.7-18.4h10.4ZM170.2,58.4c2.3,0,4.1-.7,5.5-2,1.4-1.3,2-3.1,2-5.5s-.7-4.2-2-5.5c-1.4-1.3-3.2-2-5.5-2h-4.5v14.9h4.5ZM155.2,35.2h15.5c3.5,0,6.6.6,9.3,1.9s4.8,3.1,6.2,5.5c1.5,2.4,2.2,5.2,2.2,8.4s-.7,6-2.2,8.4c-1.5,2.4-3.6,4.2-6.2,5.5-2.7,1.3-5.8,1.9-9.3,1.9h-15.5v-31.5ZM137.5,53.6l-3.1-7.9-3.1,7.9h6.1ZM140.4,61.2h-12l-2.1,5.5h-10.8l13.8-31.5h10.4l13.8,31.5h-11l-2.1-5.5Z"/>
  <polygon class="st6" points="82.3 72.3 310 72.3 318.1 90.9 82.3 90.9 82.3 72.3"/>
  <path class="st0" d="M302.9,81.8c.8,0,1.4-.1,1.7-.4.3-.3.5-.7.5-1.3s-.2-1-.5-1.2c-.3-.2-.9-.3-1.6-.3h-1.8v3.3h1.8ZM307.6,80c0,1.8-.7,2.9-2.1,3.4l2.8,3.9h-3l-2.4-3.5h-1.7v3.5h-2.4v-11h4.2c1.7,0,2.9.3,3.7.9.7.6,1.1,1.5,1.1,2.8ZM296.3,76.4v2.2h-5.5v2.3h4.9v2.1h-4.9v2.3h5.6v2.2h-8.1v-11h7.9ZM283.5,78.5v8.9h-2.4v-8.9h-3.1v-2.1h8.7v2.1h-3.1ZM273.7,76.4h2.5v11h-2.5l-5.2-6.9v6.9h-2.4v-11h2.3l5.4,7.1v-7.1ZM263.7,76.4v2.2h-5.5v2.3h4.9v2.1h-4.9v2.3h5.6v2.2h-8.1v-11h7.9ZM249.3,85.2c1.2,0,2.2-.5,3-1.4l1.6,1.6c-1.2,1.4-2.7,2.1-4.4,2.1s-3.1-.5-4.2-1.6c-1.1-1.1-1.6-2.4-1.6-4s.6-3,1.7-4.1c1.1-1.1,2.5-1.6,4.1-1.6s3.3.7,4.5,2.1l-1.5,1.7c-.8-1-1.7-1.4-2.9-1.4s-1.7.3-2.4.9c-.7.6-1,1.4-1,2.4s.3,1.8.9,2.5,1.4.9,2.2.9ZM238.1,76.4v2.2h-5.1v2.4h4.8v2.2h-4.8v4.3h-2.4v-11h7.5ZM223.8,83.4l2.8-7h2.7l-4.4,11h-2.1l-4.4-11h2.7l2.8,7ZM214.6,76.4h2.5v11h-2.5v-11ZM203.4,78c-.2,0-.4,0-.6.2-.2.2-.3.4-.3.7s.2.7.6,1.2c.8-.4,1.2-.8,1.2-1.2s0-.5-.3-.7c-.2-.2-.4-.2-.6-.2ZM201.1,84.3c0,.4.2.7.5.9.3.2.7.4,1.2.4s1-.2,1.6-.7c-.8-.8-1.4-1.5-2-2.2-.8.5-1.2,1-1.2,1.6ZM205.8,86.4c-.9.7-1.9,1.1-3.1,1.1s-2.1-.3-2.9-.9c-.7-.6-1.1-1.4-1.1-2.4s.8-2.2,2.3-3.1c-.3-.4-.6-.8-.8-1.1-.2-.3-.2-.7-.2-1.1,0-.9.3-1.6,1-2,.6-.5,1.4-.7,2.3-.7s1.6.2,2.3.7c.6.5.9,1.1.9,1.9s-.7,2-2.2,2.9c.6.7,1,1.3,1.3,1.6.3-.5.5-1,.6-1.5l1.8,1.3c-.2.7-.5,1.3-.9,1.8l1.6,1.5-1.6,1.5-1.4-1.4ZM190.3,87.4h-2.4v-4.3l-3.8-6.6h2.7l2.4,4.1,2.4-4.1h2.7l-3.8,6.6v4.3ZM180.7,78.5v8.9h-2.4v-8.9h-3.1v-2.1h8.7v2.1h-3.1ZM170.9,76.4h2.5v11h-2.5v-11ZM161.9,87.4v-11h2.5v8.8h4.7v2.2h-7.1ZM156.8,76.4h2.4v11h-2.4v-11ZM151.9,78.5v8.9h-2.4v-8.9h-3.1v-2.1h8.7v2.1h-3.1ZM140.3,81.8c.8,0,1.4-.1,1.7-.4.3-.3.5-.7.5-1.3s-.2-1-.5-1.2c-.3-.2-.9-.3-1.6-.3h-1.8v3.3h1.8ZM145,80c0,1.8-.7,2.9-2.1,3.4l2.8,3.9h-3l-2.4-3.5h-1.7v3.5h-2.4v-11h4.2c1.7,0,2.9.3,3.7.9.7.6,1.1,1.5,1.1,2.8ZM133.7,76.4v2.2h-5.5v2.3h4.9v2.1h-4.9v2.3h5.6v2.2h-8.1v-11h7.9ZM123.7,76.4v2.2h-5.1v2.4h4.8v2.2h-4.8v4.3h-2.4v-11h7.5Z"/>
  <g class="st8">
    <rect class="st7" x="23.5" y="22.6" width="80.9" height="80.9"/>
  </g>
  <path class="st5" d="M62.4,21.1c22.4,0,40.5,18.1,40.5,40.5s-18.1,40.5-40.5,40.5-40.5-18.1-40.5-40.5S40,21.1,62.4,21.1"/>
  <g class="st2">
    <rect class="st1" x="39.2" y="29" width="51.2" height="65.9"/>
  </g>
</svg>